Coordinates
version=1
nRows=13
nColumns=40
inDegrees=yes

Units are S.I. units (second, meters, Newtons, ...)
Angles are in degrees.

endheader
time	pelvis_tilt	pelvis_list	pelvis_rotation	pelvis_tx	pelvis_ty	pelvis_tz	hip_flexion_r	hip_adduction_r	hip_rotation_r	knee_angle_r	knee_angle_r_beta	ankle_angle_r	subtalar_angle_r	mtp_angle_r	hip_flexion_l	hip_adduction_l	hip_rotation_l	knee_angle_l	knee_angle_l_beta	ankle_angle_l	subtalar_angle_l	mtp_angle_l	lumbar_extension	lumbar_bending	lumbar_rotation	arm_flex_r	arm_add_r	arm_rot_r	elbow_flex_r	pro_sup_r	wrist_flex_r	wrist_dev_r	arm_flex_l	arm_add_l	arm_rot_l	elbow_flex_l	pro_sup_l	wrist_flex_l	wrist_dev_l
      0.33000000	     -2.51500018	      1.13167767	      0.25913356	     -0.43741653	      0.87808067	      1.50898835	     12.55492521	     -8.09831039	     -9.23300093	    -67.09589672	     -1.17104431	     -8.49462229	    -18.19020261	     20.97969848	     24.74581303	     -1.10709283	     10.77476217	    -36.68438045	     -0.64026322	     11.25962790	     15.15309744	      8.50221198	     -7.01278595	     -6.11931602	     -4.39823317	    -10.34625598	     -8.59280405	    -11.95377730	     54.06027297	     89.95437384	      0.00000000	      0.00000000	     -5.09160902	     11.77872808	     21.69628163	     23.45526303	     89.95437384	      0.00000000	      0.00000000
      0.34000000	     -2.50218816	      0.78973015	      0.71835448	     -0.42626563	      0.87957624	      1.50815350	     14.25293223	     -7.45513713	     -9.38174718	    -67.79225207	     -1.18319801	     -7.31794117	    -18.01010171	     20.53085820	     23.75322288	     -1.03078845	     10.15365603	    -36.37425736	     -0.63485055	     11.71954465	     14.98970684	      8.21281119	     -7.15975265	     -5.74177893	     -4.80316193	    -10.51376304	     -8.37143225	    -11.87581165	     52.19364681	     89.95437384	      0.00000000	      0.00000000	     -4.20795226	     11.78754255	     21.24124234	     24.88267850	     89.95437384	      0.00000000	      0.00000000
      0.35000000	     -2.54629600	      0.49173306	      1.18366871	     -0.41499357	      0.88093479	      1.50717994	     15.95450099	     -6.91657672	     -9.59912588	    -68.17705256	     -1.18991404	     -6.06979945	    -17.78080548	     20.07965643	     22.80279020	     -0.97651001	      9.63940087	    -36.04272756	     -0.62906427	     12.32696431	     14.90672198	      7.91198767	     -7.19258598	     -5.39458229	     -5.19308264	    -10.73475126	     -8.17651546	    -11.82784815	     50.28571853	     89.95437384	      0.00000000	      0.00000000	     -3.43346587	     11.78880491	     20.64025565	     26.49332306	     89.95437384	      0.00000000	      0.00000000
      0.36000000	     -2.52272524	      0.23924913	      1.52671920	     -0.40338157	      0.88217708	      1.50603938	     17.57836904	     -6.58230263	     -9.92978316	    -68.35351420	     -1.19299388	     -5.23706127	    -17.54154836	     19.63659263	     21.73463347	     -0.86055140	      9.44553808	    -35.69054433	     -0.62291751	     12.64119622	     14.70996363	      7.69658430	     -7.24937639	     -5.03169344	     -5.38903078	    -11.17700826	     -8.10844615	    -11.80075282	     48.69428742	     89.95437384	      0.00000000	      0.00000000	     -2.55245429	     11.68842797	     20.26778081	     27.97462206	     89.95437384	      0.00000000	      0.00000000
      0.37000000	     -2.47312283	      0.15289670	      2.07881903	     -0.39179607	      0.88349605	      1.50498439	     19.00750200	     -6.28943409	    -10.11667867	    -68.09627034	     -1.18850413	     -3.73675991	    -17.23872049	     19.47617514	     20.56116593	     -1.10483569	      8.68333201	    -35.14963101	     -0.61347679	     13.24644182	     15.02782312	      7.26669211	     -7.36858595	     -4.93956726	     -6.02409112	    -11.26892936	     -7.89428060	    -11.63695997	     46.53509246	     89.95437384	      0.00000000	      0.00000000	     -2.40838490	     11.92788730	     19.03622519	     30.67134566	     89.95437384	      0.00000000	      0.00000000
      0.38000000	     -2.49386534	     -0.06700044	      2.39350355	     -0.38036379	      0.88460434	      1.50411416	     20.57024948	     -5.84411421	    -10.21713894	    -67.59897307	     -1.17982465	     -2.88555888	    -17.25497796	     19.25003798	     19.49240533	     -1.02528817	      8.36690054	    -34.60776293	     -0.60401941	     13.62687395	     14.91455310	      7.02704475	     -7.39070547	     -4.66266358	     -6.26259842	    -11.48652217	     -7.71182379	    -11.79456180	     44.54436832	     89.95437384	      0.00000000	      0.00000000	     -1.67636457	     11.91924504	     18.60944000	     32.50162264	     89.95437384	      0.00000000	      0.00000000
      0.39000000	     -2.43494483	     -0.23064644	      2.76353153	     -0.36875145	      0.88559167	      1.50327733	     21.94174454	     -5.51297754	    -10.39171437	    -66.84227478	     -1.16661777	     -2.00755818	    -17.32603764	     19.06781164	     18.33334993	     -0.98887929	      8.04519899	    -34.07477821	     -0.59471707	     13.95896435	     14.83030163	      6.76705846	     -7.48185888	     -4.45713166	     -6.62147671	    -11.68384001	     -7.54330314	    -11.88944613	     42.54904807	     89.95437384	      0.00000000	      0.00000000	     -1.21891002	     12.01527425	     17.96156154	     34.71696700	     89.95437384	      0.00000000	      0.00000000
      0.40000000	     -2.39615898	     -0.33268991	      3.02333661	     -0.35689265	      0.88640613	      1.50246687	     23.27385614	     -5.26315041	    -10.50769346	    -65.82070643	     -1.14878804	     -1.23985402	    -17.46259499	     18.90870162	     17.11306717	     -0.97646976	      7.88519151	    -33.47289337	     -0.58421220	     14.43929406	     14.72678219	      6.55154754	     -7.51538044	     -4.30851018	     -6.89347868	    -11.93838805	     -7.41222212	    -11.99256211	     40.62291751	     89.95437384	      0.00000000	      0.00000000	     -0.74720523	     12.08937057	     17.48748113	     36.91203013	     89.95437384	      0.00000000	      0.00000000
      0.41000000	     -2.44656318	     -0.38676360	      3.28455454	     -0.34478692	      0.88678239	      1.50147311	     24.60032392	     -5.18380949	    -10.74425140	    -64.55117043	     -1.12663046	     -0.58090530	    -17.50101307	     18.70309686	     16.02071291	     -0.99112453	      7.91582895	    -32.92200557	     -0.57459739	     14.72089125	     14.57095252	      6.37464348	     -7.39223014	     -4.17458027	     -7.09925176	    -12.40980359	     -7.36742614	    -12.07045266	     38.95314550	     89.95437384	      0.00000000	      0.00000000	     -0.25052523	     12.08372916	     17.10528897	     38.95890332	     89.95437384	      0.00000000	      0.00000000
      0.42000000	     -2.18773231	     -0.47747574	      3.68415469	     -0.33334515	      0.88756089	      1.50068788	     25.49755351	     -4.94813257	    -10.85529197	    -62.94198427	     -1.09854486	      0.19783316	    -17.61242644	     18.75020353	     14.59365086	     -1.04101777	      7.44863342	    -32.27393372	     -0.56328641	     15.10488265	     14.46715903	      6.10762129	     -7.79710293	     -4.05208925	     -7.69289549	    -12.25804892	     -7.17786411	    -12.26667372	     36.70027492	     89.95437384	      0.00000000	      0.00000000	     -0.16375644	     12.35533921	     16.58405367	     41.96391359	     89.95437384	      0.00000000	      0.00000000
      0.43000000	     -2.11349372	     -0.52558937	      3.89743677	     -0.32145122	      0.88785317	      1.49998331	     26.53012729	     -4.79417882	    -10.89940894	    -61.13063245	     -1.06693081	      0.93662684	    -17.66903514	     18.77106961	     13.30630864	     -1.03868888	      7.36623212	    -31.61274622	     -0.55174651	     15.46380128	     14.32291707	      5.86113995	     -7.88874629	     -3.95089887	     -7.99256136	    -12.45342249	     -7.09598152	    -12.49268865	     34.87397265	     89.95437384	      0.00000000	      0.00000000	      0.13711892	     12.43832850	     16.35726530	     44.44195164	     89.95437384	      0.00000000	      0.00000000
      0.44000000	     -1.70883806	     -0.50545986	      4.20055456	     -0.30911048	      0.88861547	      1.49906805	     26.95318669	     -4.78538160	    -11.10374485	    -58.92093847	     -1.02836437	      1.60736878	    -17.52520473	     19.24481937	     11.54099205	     -1.04351590	      7.38269441	    -30.77745096	     -0.53716785	     15.54546516	     13.95115890	      5.35006321	     -8.34307589	     -3.87442888	     -8.47088509	    -12.56724968	     -7.02736066	    -12.67232912	     32.99066501	     89.95437384	      0.00000000	      0.00000000	      0.37084020	     12.51121398	     16.33934161	     46.98603703	     89.95437384	      0.00000000	      0.00000000
      0.45000000	     -1.94197334	     -0.47378584	      4.39816672	     -0.29717745	      0.88806409	      1.49838204	     28.14740456	     -4.73292084	    -11.00955020	    -56.67333097	     -0.98913622	      2.21428993	    -17.40962455	     19.10737436	     10.65664948	     -1.03913002	      7.55940726	    -30.26154868	     -0.52816366	     15.97996988	     13.69360183	      5.12066975	     -8.05580703	     -3.86079122	     -8.74220162	    -12.97373584	     -6.99279143	    -12.92533957	     31.49065986	     89.95437384	      0.00000000	      0.00000000	      0.65693337	     12.66552582	     16.00680069	     49.24528034	     89.95437384	      0.00000000	      0.00000000
